<?xml version="1.0" standalone="no"?>
<!DOCTYPE svg PUBLIC "-//W3C//DTD SVG 20010904//EN"
 "http://www.w3.org/TR/2001/REC-SVG-20010904/DTD/svg10.dtd">
<svg version="1.0" xmlns="http://www.w3.org/2000/svg"
 width="209.000000pt" height="209.000000pt" viewBox="0 0 209.000000 209.000000"
 preserveAspectRatio="xMidYMid meet">
<metadata>
Created by potrace 1.14, written by Peter Selinger 2001-2017
</metadata>
<g transform="translate(0.000000,209.000000) scale(0.100000,-0.100000)"
fill="#000000" stroke="none">
<path d="M683 1731 c-72 -18 -203 -126 -203 -168 0 -8 -4 -11 -10 -8 -5 3 -10
2 -10 -3 0 -5 -48 -12 -107 -14 -119 -6 -201 -34 -256 -86 -28 -26 -59 -75
-56 -88 0 -4 -4 -10 -10 -13 -6 -4 -13 -31 -16 -61 -4 -30 -8 -60 -10 -67 -2
-6 -1 -14 3 -18 4 -4 7 -16 8 -28 0 -12 5 -32 12 -43 6 -12 9 -24 6 -27 -3 -3
-1 -13 5 -24 5 -10 16 -33 23 -50 7 -18 16 -33 20 -33 5 0 7 -3 6 -7 -3 -10
43 -87 54 -91 4 -2 8 -8 8 -13 0 -19 170 -196 246 -257 62 -49 214 -138 305
-178 143 -64 243 -87 374 -88 97 0 119 3 189 28 44 16 100 40 125 54 42 23
169 108 181 121 3 3 33 30 68 60 69 58 170 159 215 212 74 88 148 189 140 189
-3 0 4 11 17 25 13 14 20 25 17 25 -4 0 4 18 18 40 14 22 23 40 20 40 -3 0 1
16 9 35 23 55 5 133 -32 136 -44 4 -89 -5 -146 -30 -60 -26 -162 -89 -200
-124 -24 -21 -35 -12 -41 32 -5 46 -16 94 -23 106 -4 6 -8 19 -9 30 -8 49 -91
139 -148 161 -54 20 -113 13 -180 -21 l-47 -23 -26 30 c-96 110 -231 204 -330
230 -50 14 -170 19 -209 9z m825 -683 c9 -9 8 -16 -5 -30 -20 -22 -39 -23 -47
-3 -13 36 24 61 52 33z"/>
</g>
</svg>
